<svg xmlns="http://www.w3.org/2000/svg" viewBox="0 0 1400 760" width="1400" height="760"><rect width="1400" height="760" fill="#0E0F11"/><line x1="0" y1="0" x2="0" y2="760" stroke="#1A1C1F" stroke-width="1"/><line x1="40" y1="0" x2="40" y2="760" stroke="#1A1C1F" stroke-width="1"/><line x1="80" y1="0" x2="80" y2="760" stroke="#1A1C1F" stroke-width="1"/><line x1="120" y1="0" x2="120" y2="760" stroke="#1A1C1F" stroke-width="1"/><line x1="160" y1="0" x2="160" y2="760" stroke="#1A1C1F" stroke-width="1"/><line x1="200" y1="0" x2="200" y2="760" stroke="#1A1C1F" stroke-width="1"/><line x1="240" y1="0" x2="240" y2="760" stroke="#1A1C1F" stroke-width="1"/><line x1="280" y1="0" x2="280" y2="760" stroke="#1A1C1F" stroke-width="1"/><line x1="320" y1="0" x2="320" y2="760" stroke="#1A1C1F" stroke-width="1"/><line x1="360" y1="0" x2="360" y2="760" stroke="#1A1C1F" stroke-width="1"/><line x1="400" y1="0" x2="400" y2="760" stroke="#1A1C1F" stroke-width="1"/><line x1="440" y1="0" x2="440" y2="760" stroke="#1A1C1F" stroke-width="1"/><line x1="480" y1="0" x2="480" y2="760" stroke="#1A1C1F" stroke-width="1"/><line x1="520" y1="0" x2="520" y2="760" stroke="#1A1C1F" stroke-width="1"/><line x1="560" y1="0" x2="560" y2="760" stroke="#1A1C1F" stroke-width="1"/><line x1="600" y1="0" x2="600" y2="760" stroke="#1A1C1F" stroke-width="1"/><line x1="640" y1="0" x2="640" y2="760" stroke="#1A1C1F" stroke-width="1"/><line x1="680" y1="0" x2="680" y2="760" stroke="#1A1C1F" stroke-width="1"/><line x1="720" y1="0" x2="720" y2="760" stroke="#1A1C1F" stroke-width="1"/><line x1="760" y1="0" x2="760" y2="760" stroke="#1A1C1F" stroke-width="1"/><line x1="800" y1="0" x2="800" y2="760" stroke="#1A1C1F" stroke-width="1"/><line x1="840" y1="0" x2="840" y2="760" stroke="#1A1C1F" stroke-width="1"/><line x1="880" y1="0" x2="880" y2="760" stroke="#1A1C1F" stroke-width="1"/><line x1="920" y1="0" x2="920" y2="760" stroke="#1A1C1F" stroke-width="1"/><line x1="960" y1="0" x2="960" y2="760" stroke="#1A1C1F" stroke-width="1"/><line x1="1000" y1="0" x2="1000" y2="760" stroke="#1A1C1F" stroke-width="1"/><line x1="1040" y1="0" x2="1040" y2="760" stroke="#1A1C1F" stroke-width="1"/><line x1="1080" y1="0" x2="1080" y2="760" stroke="#1A1C1F" stroke-width="1"/><line x1="1120" y1="0" x2="1120" y2="760" stroke="#1A1C1F" stroke-width="1"/><line x1="1160" y1="0" x2="1160" y2="760" stroke="#1A1C1F" stroke-width="1"/><line x1="1200" y1="0" x2="1200" y2="760" stroke="#1A1C1F" stroke-width="1"/><line x1="1240" y1="0" x2="1240" y2="760" stroke="#1A1C1F" stroke-width="1"/><line x1="1280" y1="0" x2="1280" y2="760" stroke="#1A1C1F" stroke-width="1"/><line x1="1320" y1="0" x2="1320" y2="760" stroke="#1A1C1F" stroke-width="1"/><line x1="1360" y1="0" x2="1360" y2="760" stroke="#1A1C1F" stroke-width="1"/><line x1="0" y1="0" x2="1400" y2="0" stroke="#1A1C1F" stroke-width="1"/><line x1="0" y1="40" x2="1400" y2="40" stroke="#1A1C1F" stroke-width="1"/><line x1="0" y1="80" x2="1400" y2="80" stroke="#1A1C1F" stroke-width="1"/><line x1="0" y1="120" x2="1400" y2="120" stroke="#1A1C1F" stroke-width="1"/><line x1="0" y1="160" x2="1400" y2="160" stroke="#1A1C1F" stroke-width="1"/><line x1="0" y1="200" x2="1400" y2="200" stroke="#1A1C1F" stroke-width="1"/><line x1="0" y1="240" x2="1400" y2="240" stroke="#1A1C1F" stroke-width="1"/><line x1="0" y1="280" x2="1400" y2="280" stroke="#1A1C1F" stroke-width="1"/><line x1="0" y1="320" x2="1400" y2="320" stroke="#1A1C1F" stroke-width="1"/><line x1="0" y1="360" x2="1400" y2="360" stroke="#1A1C1F" stroke-width="1"/><line x1="0" y1="400" x2="1400" y2="400" stroke="#1A1C1F" stroke-width="1"/><line x1="0" y1="440" x2="1400" y2="440" stroke="#1A1C1F" stroke-width="1"/><line x1="0" y1="480" x2="1400" y2="480" stroke="#1A1C1F" stroke-width="1"/><line x1="0" y1="520" x2="1400" y2="520" stroke="#1A1C1F" stroke-width="1"/><line x1="0" y1="560" x2="1400" y2="560" stroke="#1A1C1F" stroke-width="1"/><line x1="0" y1="600" x2="1400" y2="600" stroke="#1A1C1F" stroke-width="1"/><line x1="0" y1="640" x2="1400" y2="640" stroke="#1A1C1F" stroke-width="1"/><line x1="0" y1="680" x2="1400" y2="680" stroke="#1A1C1F" stroke-width="1"/><line x1="0" y1="720" x2="1400" y2="720" stroke="#1A1C1F" stroke-width="1"/><text x="300" y="56" fill="#E1251B" font-family="monospace" font-size="17" font-weight="700" text-anchor="middle" letter-spacing="2">FRONT</text><rect x="200.2" y="90.0" width="199.5" height="520.0" fill="none" stroke="#7FD4E8" stroke-width="2"/><line x1="300" y1="76" x2="300" y2="624.0" stroke="#7A8189" stroke-width="1" stroke-dasharray="9 5 3 5"/><line x1="200.24489795918367" y1="547.6" x2="399.7551020408164" y2="547.6" stroke="#3A4046" stroke-width="1"/><line x1="200.24489795918367" y1="318.8" x2="399.7551020408164" y2="318.8" stroke="#3A4046" stroke-width="1"/><line x1="200.24489795918367" y1="225.2" x2="399.7551020408164" y2="225.2" stroke="#3A4046" stroke-width="1"/><line x1="200.24489795918367" y1="142.0" x2="399.7551020408164" y2="142.0" stroke="#3A4046" stroke-width="1"/><line x1="160.24489795918367" y1="90" x2="160.24489795918367" y2="610.0" stroke="#7A8189" stroke-width="1.4"/><line x1="154.24489795918367" y1="90" x2="166.24489795918367" y2="90" stroke="#7A8189" stroke-width="1.4"/><line x1="154.24489795918367" y1="610.0" x2="166.24489795918367" y2="610.0" stroke="#7A8189" stroke-width="1.4"/><text x="150.24489795918367" y="350.0" fill="#E8EAEC" font-family="monospace" font-size="15" text-anchor="end" transform="rotate(-90 150.24489795918367 350.0)">245 mm</text><line x1="200.24489795918367" y1="644.0" x2="399.7551020408164" y2="644.0" stroke="#7A8189" stroke-width="1.4"/><text x="300" y="664.0" fill="#E8EAEC" font-family="monospace" font-size="15" text-anchor="middle">⌀ 94 mm</text><text x="700" y="56" fill="#E1251B" font-family="monospace" font-size="17" font-weight="700" text-anchor="middle" letter-spacing="2">SIDE</text><rect x="600.2" y="90.0" width="199.5" height="520.0" fill="none" stroke="#7FD4E8" stroke-width="2"/><line x1="700" y1="76" x2="700" y2="624.0" stroke="#7A8189" stroke-width="1" stroke-dasharray="9 5 3 5"/><line x1="600.2448979591836" y1="547.6" x2="799.7551020408163" y2="547.6" stroke="#3A4046" stroke-width="1"/><line x1="600.2448979591836" y1="318.8" x2="799.7551020408163" y2="318.8" stroke="#3A4046" stroke-width="1"/><line x1="600.2448979591836" y1="225.2" x2="799.7551020408163" y2="225.2" stroke="#3A4046" stroke-width="1"/><line x1="600.2448979591836" y1="142.0" x2="799.7551020408163" y2="142.0" stroke="#3A4046" stroke-width="1"/><line x1="560.2448979591836" y1="90" x2="560.2448979591836" y2="610.0" stroke="#7A8189" stroke-width="1.4"/><line x1="554.2448979591836" y1="90" x2="566.2448979591836" y2="90" stroke="#7A8189" stroke-width="1.4"/><line x1="554.2448979591836" y1="610.0" x2="566.2448979591836" y2="610.0" stroke="#7A8189" stroke-width="1.4"/><text x="550.2448979591836" y="350.0" fill="#E8EAEC" font-family="monospace" font-size="15" text-anchor="end" transform="rotate(-90 550.2448979591836 350.0)">245 mm</text><line x1="600.2448979591836" y1="644.0" x2="799.7551020408163" y2="644.0" stroke="#7A8189" stroke-width="1.4"/><text x="700" y="664.0" fill="#E8EAEC" font-family="monospace" font-size="15" text-anchor="middle">⌀ 94 mm</text><text x="1100" y="56" fill="#E1251B" font-family="monospace" font-size="17" font-weight="700" text-anchor="middle" letter-spacing="2">TOP</text><circle cx="1100" cy="350.0" r="99.8" fill="none" stroke="#7FD4E8" stroke-width="2"/><circle cx="1100" cy="350.0" r="54.9" fill="none" stroke="#3A4046" stroke-width="1.5"/><line x1="984.2448979591836" y1="350.0" x2="1215.7551020408164" y2="350.0" stroke="#7A8189" stroke-width="1" stroke-dasharray="9 5 3 5"/><line x1="1100" y1="234.2" x2="1100" y2="465.8" stroke="#7A8189" stroke-width="1" stroke-dasharray="9 5 3 5"/><text x="1100" y="489.8" fill="#E8EAEC" font-family="monospace" font-size="15" text-anchor="middle">⌀ 94 mm</text><text x="90" y="714" fill="#E8EAEC" font-family="monospace" font-size="18" font-weight="700">GENEFIRE SX 750</text><text x="90" y="736" fill="#7A8189" font-family="monospace" font-size="13">AGC 750 g   ·   TOTAL 1265 g   ·   VOLUME 37.5 m³   ·   DISCHARGE 48 s</text><text x="1310" y="736" fill="#7A8189" font-family="monospace" font-size="12" text-anchor="end">ALMAGHRABI · orthographic reference · units mm · scale 1:0.47</text><rect x="60" y="32" width="1280" height="630" fill="none" stroke="#2A2E33" stroke-width="1"/></svg>